<svg width="16" height="18" viewBox="0 0 16 18" fill="none" xmlns="http://www.w3.org/2000/svg">
<path d="M15.2693 13.8442C15.016 14.4352 14.7025 14.9985 14.3338 15.5252C13.8441 16.2269 13.4421 16.7093 13.1351 16.9797C12.6527 17.4182 12.1411 17.6448 11.5929 17.6594C11.1982 17.6594 10.7232 17.5498 10.1677 17.3159C9.68266 17.1056 9.16139 16.9914 8.63283 16.9797C8.0899 16.9895 7.55392 17.1036 7.05411 17.3159C6.49132 17.5425 6.03817 17.6594 5.68735 17.6741C5.16111 17.696 4.63487 17.4621 4.10863 16.9724C3.77242 16.68 3.35581 16.1757 2.8515 15.4668C2.28594 14.6544 1.8381 13.7661 1.52128 12.8283C1.14853 11.7465 0.958496 10.7014 0.958496 9.68544C0.958496 8.52333 1.207 7.52201 1.71131 6.68149C2.09288 6.02237 2.63624 5.47146 3.29003 5.08084C3.93463 4.69199 4.67147 4.48255 5.42423 4.4742C5.84083 4.4742 6.39631 4.60576 7.07604 4.86157C7.75576 5.11738 8.1943 5.24894 8.38433 5.24894C8.5305 5.24894 9.01289 5.09546 9.8388 4.79579C10.6184 4.51806 11.2762 4.40111 11.8122 4.44497C13.274 4.56191 14.3703 5.13931 15.1012 6.17717C13.7929 6.96653 13.1497 8.07748 13.1643 9.49541C13.179 10.6064 13.5809 11.5273 14.3703 12.2582C14.7211 12.5888 15.1267 12.8558 15.569 13.0475C15.4813 13.3253 15.3789 13.5884 15.2693 13.8442ZM11.9218 0.673581C11.9218 1.54334 11.6075 2.35462 10.9717 3.10013C10.2115 3.99182 9.28332 4.50344 8.28931 4.42304C8.27424 4.31406 8.26691 4.20415 8.26738 4.09414C8.26738 3.26093 8.63283 2.36924 9.27601 1.63835C9.61777 1.25037 10.0357 0.936886 10.5039 0.717434C10.9404 0.492966 11.4177 0.358736 11.9072 0.322754C11.9145 0.439696 11.9218 0.556638 11.9218 0.673581Z" fill="#272727"/>
</svg>
